<?xml version="1.0" encoding="utf-8"?>
<!-- Generator: Adobe Illustrator 21.1.0, SVG Export Plug-In . SVG Version: 6.00 Build 0)  -->
<svg version="1.1" id="Layer_1" xmlns="http://www.w3.org/2000/svg" xmlns:xlink="http://www.w3.org/1999/xlink" x="0px" y="0px"
	 viewBox="0 0 500 140.6" style="enable-background:new 0 0 500 140.6;" xml:space="preserve">
<style type="text/css">
	.st0{fill:#FFFFFF;}
</style>
<path class="st0" d="M148.1,139.9c-12.9,0-25.3,0-38,0c-0.6-7.9-1.3-15.7-1.9-23.8c-1.3-0.1-2.4-0.2-3.6-0.2
	c-17.5,0-34.9,0-52.4-0.1c-2.5,0-4,0.6-5,3c-2.7,6.3-5.5,12.6-8.5,18.8c-0.4,0.9-1.6,2.2-2.4,2.2C24.4,140,12.3,140,0,140
	c0.2-1,0.2-1.8,0.5-2.5C18.2,92.8,44.1,53.7,80.7,22.2c10.9-9.4,23-17.2,37.2-20.8c3.9-1,8.1-1.4,12.2-1.3c4,0.1,5.7,2,6.1,6.1
	c1.2,11.6,2.2,23.3,3.2,35c2.2,25,4.5,50.1,6.7,75.1C146.8,124,147.4,131.7,148.1,139.9z M105.9,85.5c-1-14-2.1-27.5-3.1-41.1
	c-0.4-0.2-0.8-0.4-1.2-0.7C87.8,55.6,76.9,70.1,66.4,85.5C79.9,85.5,92.6,85.5,105.9,85.5z"/>
<path class="st0" d="M443.1,33.5c32.4,0,57,24.2,56.9,54c-0.2,27-21.8,50.4-48.7,52.7c-26.2,2.3-49.4-11.5-58-34.5
	c-11.6-30.9,8-65.1,40.7-71C437.6,34,441.3,33.7,443.1,33.5z M444.8,109.9c12.5,0,22.4-9.9,22.6-22.5c0.2-12.6-9.9-23.1-22.3-23.2
	c-12.5-0.1-22.4,10-22.4,22.9C422.6,99.9,432.3,109.8,444.8,109.9z"/>
<path class="st0" d="M383.9,34.7c-0.4,11-2.6,21.1-5.9,31c-8,23.9-20.6,44.8-40.8,60.4c-10.8,8.3-22.9,13.5-36.6,14.3
	c-1.6,0.1-3.2,0.1-4.8-0.1c-3.2-0.4-5.1-2.1-5.4-5.6c-1-11.2-2.1-22.4-3.2-33.6c-1.9-20.1-3.7-40.2-5.5-60.4c-0.2-1.9-0.2-3.8-0.4-6
	c11.6,0,22.8,0,34.5,0c1.6,20.8,3.2,41.6,4.8,63.3c1.8-1.3,2.9-1.9,3.8-2.8c9.9-9.8,15.4-22.2,19.1-35.3c2.1-7.5,3.2-15.2,5-22.8
	c0.2-1,1.5-2.4,2.3-2.4C361.6,34.6,372.5,34.7,383.9,34.7z"/>
<path class="st0" d="M232.9,34.9c11.2,0,22.7,0,35,0c-1.2,7.2-2,14.1-3.7,20.8c-6.6,26.5-19.1,49.6-40,67.6
	c-11.5,9.9-24.7,16.2-40.1,17.2c-1.4,0.1-2.8,0.2-4.1,0.1c-4.1-0.4-5.8-1.9-6.2-6c-1.3-13.3-2.6-26.5-3.8-39.8
	c-1.8-19.2-3.5-38.4-5.2-57.6c-0.1-0.7,0-1.3,0-2.2c11.4,0,22.7,0,34.4,0c1.6,20.8,3.1,41.6,4.8,63.3c1.8-1.3,3-2,4-2.9
	c8.8-8.7,14.2-19.5,17.6-31.1C228.4,54.6,230.4,44.9,232.9,34.9z"/>
</svg>
