<?xml version="1.0" encoding="utf-8"?>
<!-- Generator: Adobe Illustrator 22.0.1, SVG Export Plug-In . SVG Version: 6.00 Build 0)  -->
<svg version="1.1" id="Layer_1" xmlns="http://www.w3.org/2000/svg" xmlns:xlink="http://www.w3.org/1999/xlink" x="0px" y="0px"
	 viewBox="0 0 2000 658" style="enable-background:new 0 0 2000 658;" xml:space="preserve">
<style type="text/css">
	.st0{fill:#CF622D;}
</style>
<g transform="translate(0.000000,658.000000) scale(0.100000,-0.100000)">
	<path class="st0" d="M2395,6575c-5-2-64-8-130-15c-423-43-861-221-1235-502C482,5645,98,4988,18,4325c-17-140-17-460,0-590
		c52-404,199-790,431-1130c133-196,293-373,469-520c187-157,396-291,574-370c46-20,102-45,125-56c24-10,46-19,50-19s37-11,73-24
		c92-34,232-71,395-103c137-27,147-28,480-27l340,1l160,32c213,42,335,79,525,158c448,187,835,542,1063,973c106,202,186,429,223,637
		c39,221,44,272,44,508c0,232-5,301-30,419l-11,56l-1172-2l-1172-3l-3-357l-2-358h826h827l-7-62c-8-77-46-237-81-338
		c-27-75-106-234-148-293c-180-256-386-415-707-543c-47-19-90-34-96-34s-39-9-73-21c-112-36-285-60-478-66c-157-5-201-2-320,17
		c-214,34-356,80-548,176c-136,68-158,81-270,165c-372,277-609,663-697,1134c-32,172-32,497,0,667c57,309,161,552,335,788
		c108,145,231,266,404,396c114,85,317,186,478,237c221,70,288,80,535,85c212,3,232,2,355-23c335-67,600-192,841-396
		c45-38,84-69,87-69c5,0,208,205,378,384c57,59,105,115,107,122c4,18-76,94-198,187c-91,69-111,83-225,156c-27,18-113,63-190,100
		c-189,92-348,149-548,196c-101,23-160,32-377,55C2711,6579,2418,6583,2395,6575z"/>
	<path class="st0" d="M15940,3990V1570h370h370v2420v2420h-370h-370V3990z"/>
	<path class="st0" d="M6745,4764c-16-2-79-9-140-15c-399-41-788-252-1049-568c-172-209-284-442-344-721c-24-113-27-144-27-330
		s3-217,27-330c64-293,165-513,329-715c367-452,885-656,1511-595c307,30,645,180,884,392c77,69,194,194,228,244
		c75,112,102,156,141,233c198,392,230,902,83,1336c-75,224-192,410-368,585c-303,304-679,464-1135,483
		C6825,4766,6762,4767,6745,4764z M7086,4067c246-77,435-237,556-472c92-178,126-464,83-703c-23-128-110-311-198-417
		c-189-227-443-345-720-333c-240,11-431,92-600,257c-120,116-199,255-257,451c-18,61-24,107-27,245c-4,165-4,174,26,288
		c98,374,340,613,716,706c22,6,108,9,190,7C6982,4093,7017,4089,7086,4067z"/>
	<path class="st0" d="M10300,4764c-276-25-493-85-688-190c-243-131-436-307-587-533c-217-326-308-713-261-1106
		c48-395,195-703,466-976c232-233,463-362,791-439c228-54,575-52,796,4c204,52,352,117,515,225c462,306,718,795,718,1369
		c0,379-104,718-302,987c-78,105-270,292-375,363c-212,144-465,243-708,277C10550,4761,10372,4770,10300,4764z M10655,4067
		c143-45,215-83,314-166c166-138,270-310,322-531c32-134,33-365,1-495c-41-175-104-298-222-434c-114-133-282-233-469-278
		c-189-45-398-22-584,67c-340,161-544,527-524,939c6,134,19,208,54,306c102,293,326,510,607,590c45,13,90,26,101,28c11,3,88,4,170,3
		C10553,4093,10587,4089,10655,4067z"/>
	<path class="st0" d="M18390,4764c-307-38-500-106-720-255c-145-98-312-266-405-409c-241-367-334-841-255-1290
		c92-519,378-917,829-1153c107-56,231-101,379-139c127-32,127-32,382-32c253,0,256,0,382,32c255,63,452,159,639,311
		c126,101,349,340,349,372c-1,11-107,88-227,164c-9,6-85,56-170,113c-84,56-162,102-172,102s-23-10-28-22c-21-44-132-166-206-225
		c-88-71-211-133-327-165c-73-19-108-23-245-22c-170,0-257,15-371,65c-74,33-188,115-247,179c-58,62-149,195-151,219
		c-1,13,98,62,184,91c14,5,63,25,110,45s105,45,130,55s79,32,120,50c41,17,95,40,120,50c42,17,75,31,230,95c124,52,178,74,290,120
		c63,26,129,53,145,60c17,8,71,30,120,51c50,20,109,45,132,55s45,19,48,19s25,8,48,19c23,10,110,46,192,80c83,34,175,72,205,85
		s65,27,78,31c26,8,27,14,7,57c-8,18-37,87-65,153c-124,293-215,437-388,613c-209,215-498,367-782,412
		C18670,4762,18448,4771,18390,4764z M18670,4106c179-29,318-112,423-250c20-27,37-54,37-60s-14-17-32-25c-74-33-195-83-218-91
		c-14-4-52-20-85-35c-76-33-118-51-285-120c-145-60-237-99-285-120c-16-7-124-52-240-100c-115-48-224-94-242-102c-49-23-57-11-50,76
		c10,123,35,219,83,317c131,267,379,464,644,509C18521,4122,18569,4123,18670,4106z"/>
	<path class="st0" d="M13669,4745c-162-24-327-81-482-167c-116-64-163-96-258-175c-231-190-414-460-512-753c-69-208-82-290-82-530
		c0-197,2-226,27-340c15-69,41-165,58-214c153-446,506-814,955-994c28-11,104-35,170-53c120-34,120-34,355-34c228,0,238,1,335,29
		c118,33,278,108,355,166c30,23,86,72,123,108l69,67l-5-230c-6-273-25-376-101-528c-99-199-251-324-486-396c-78-24-99-26-255-25
		c-155,0-177,2-251,26c-156,50-267,119-383,238c-60,61-150,192-180,264c-11,25-23,46-27,46s-46-16-93-36s-117-50-156-66
		c-38-16-96-40-127-53c-59-25-138-58-215-91c-24-9-43-22-43-28c0-19,73-156,126-236c318-489,771-734,1354-733c238,0,423,33,648,117
		c234,87,475,290,623,526c147,233,237,517,259,820c5,69,10,814,10,1663v1537h-350h-350v-130v-131l-75,64c-69,59-103,85-180,133
		c-97,60-264,119-397,139C14012,4763,13790,4763,13669,4745z M14203,4066c297-100,506-331,594-658c26-96,28-116,28-293
		c0-174-2-198-26-285c-58-207-130-333-262-457c-82-76-137-114-224-155c-321-148-693-84-951,166c-125,120-207,260-259,441
		c-26,94-28,112-28,285c0,172,2,193,28,289c92,340,328,585,654,676c79,22,103,24,228,21C14103,4093,14137,4088,14203,4066z"/>
</g>
</svg>
