<?xml version="1.0" encoding="utf-8"?>
<!-- Generator: Adobe Illustrator 22.0.1, SVG Export Plug-In . SVG Version: 6.00 Build 0)  -->
<svg version="1.1" id="Locks" xmlns="http://www.w3.org/2000/svg" xmlns:xlink="http://www.w3.org/1999/xlink" x="0px" y="0px"
	 viewBox="0 0 15 20.5" style="enable-background:new 0 0 15 20.5;" xml:space="preserve">
<style type="text/css">
	.st0{fill:#FFFFFF;}
</style>
<g>
	<path class="st0" d="M12.9,7.5H2.1C0.9,7.5,0,8.4,0,9.6v8.9c0,1.1,0.9,2.1,2.1,2.1H13c1.1,0,2.1-0.9,2.1-2.1V9.6
		C15,8.4,14.1,7.5,12.9,7.5z M8.7,16.5c0,0.1,0,0.2-0.1,0.3c-0.1,0.1-0.2,0.1-0.3,0.1H7.5H6.8c-0.1,0-0.2-0.1-0.3-0.1
		c-0.1-0.1-0.1-0.2-0.1-0.3l0.4-2.9c-0.4-0.3-0.6-0.7-0.6-1.1c0-0.8,0.6-1.4,1.4-1.4S9,11.7,9,12.5c0,0.5-0.2,0.9-0.6,1.1L8.7,16.5z
		"/>
	<path class="st0" d="M4,5.6c0-1.9,1.5-3.4,3.4-3.4s3.4,1.5,3.4,3.4v1.2H13V5.6C13,2.5,10.5,0,7.4,0S1.8,2.5,1.8,5.6v1.2H4V5.6z"/>
</g>
</svg>
