<?xml version="1.0" encoding="utf-8"?>
<!-- Generator: Adobe Illustrator 22.0.1, SVG Export Plug-In . SVG Version: 6.00 Build 0)  -->
<svg version="1.1" id="Layer_1" xmlns="http://www.w3.org/2000/svg" xmlns:xlink="http://www.w3.org/1999/xlink" x="0px" y="0px"
	 viewBox="0 0 36 36.5" style="enable-background:new 0 0 36 36.5;" xml:space="preserve">
<style type="text/css">
	.st0{fill:#0c3f59;}
</style>
<g>
	<path class="st0" d="M30.3,25.1c-0.5-0.5-1.2-0.8-1.9-0.8c-0.7,0-1.4,0.3-1.9,0.8l-2.2,2.2L9.2,12.2l2.2-2.2
		c0.5-0.5,0.8-1.2,0.8-1.9s-0.3-1.4-0.8-1.9L6.5,1.3c-1.1-1.1-2.8-1.1-3.8,0L1.3,2.6C0.2,3.7-0.2,5.3,0.1,6.8
		C1.6,13.4,5.4,20,10.9,25.5s12.2,9.3,18.8,10.8c0.3,0.1,0.6,0.1,1,0.1c1.2,0,2.3-0.5,3.1-1.3l1.4-1.4c1.1-1.1,1.1-2.8,0-3.8
		L30.3,25.1z M34.1,32.7l-1.4,1.4c-0.7,0.7-1.7,1-2.7,0.8c-6.3-1.4-12.7-5.1-18-10.4S3,12.8,1.6,6.5c-0.2-1,0.1-2,0.8-2.7l1.4-1.4
		C4,2.1,4.3,2,4.6,2c0.3,0,0.6,0.1,0.8,0.3l4.9,4.9c0.5,0.5,0.5,1.2,0,1.7l-2.8,2.8c-0.1,0.1-0.2,0.3-0.2,0.5s0.1,0.4,0.2,0.5
		l16.2,16.2c0.3,0.3,0.8,0.3,1.1,0l2.8-2.8c0.5-0.5,1.2-0.5,1.7,0l4.9,4.9C34.6,31.5,34.6,32.2,34.1,32.7z"/>
	<path class="st0" d="M17.5,11c4.1,0,7.5,3.4,7.5,7.5c0,0.4,0.3,0.8,0.8,0.8c0.4,0,0.8-0.3,0.8-0.8c0-5-4.1-9-9-9
		c-0.4,0-0.8,0.3-0.8,0.8S17.1,11,17.5,11z"/>
	<path class="st0" d="M17.5,6.3c6.7,0,12.1,5.4,12.1,12.1c0,0.4,0.3,0.8,0.8,0.8s0.8-0.3,0.8-0.8c0-7.5-6.1-13.7-13.7-13.7
		c-0.4,0-0.8,0.3-0.8,0.8C16.8,6,17.1,6.3,17.5,6.3z"/>
	<path class="st0" d="M17.5,1.5c9.3,0,16.9,7.6,16.9,16.9c0,0.4,0.3,0.8,0.8,0.8c0.4,0,0.8-0.3,0.8-0.8C36,8.3,27.7,0,17.5,0
		c-0.4,0-0.8,0.3-0.8,0.8S17.1,1.5,17.5,1.5z"/>
</g>
</svg>
