<?xml version="1.0" encoding="utf-8"?>
<!-- Generator: Adobe Illustrator 21.1.0, SVG Export Plug-In . SVG Version: 6.00 Build 0)  -->
<svg version="1.1" id="Icon" xmlns="http://www.w3.org/2000/svg" xmlns:xlink="http://www.w3.org/1999/xlink" x="0px" y="0px"
	 viewBox="0 0 19.2 20" style="enable-background:new 0 0 19.2 20;" xml:space="preserve">
<style type="text/css">
	.st0{fill:#CF622D;}
</style>
<g>
	<path class="st0" d="M19,4.7l-4.6-4.6C14.4,0,14.3,0,14.2,0H3.7C3.1,0,2.5,0.6,2.5,1.3v7.5h0.8V1.3c0-0.2,0.2-0.4,0.4-0.4h10V4
		c0,0.8,0.6,1.4,1.4,1.4h3.1v13.3c0,0.2-0.2,0.4-0.4,0.4H6.8L5.9,20h12c0.7,0,1.2-0.6,1.2-1.2V5C19.2,4.9,19.1,4.8,19,4.7z"/>
	<path class="st0" d="M4.2,20l4.1-4.1c0.2-0.2,0.1-0.5-0.2-0.5H5.8V10H2.5v5.4H0.3c-0.3,0-0.4,0.3-0.2,0.5L4.2,20z"/>
</g>
</svg>
